<svg viewBox="0 -47 512.00004 512" xmlns="http://www.w3.org/2000/svg" fill="none"><path id="path" d="M 512 56 c -32.2 1.5 -31.5 1.4 -35.1 1.7 l 19.1 -54.5 s -59.5 21.9 -74.6 25.8 c -39.6 -35.6 -98.6 -37.2 -140.7 -11.3 c -34.5 21.2 -53 57.6 -46.8 100.2 c -67.1 -9.3 -123.7 -41.1 -168.4 -94.8 l -14.1 -17 l -10.6 19.4 c -13.3 24.5 -17.8 52.5 -12.5 78.9 c 2.2 10.8 5.9 21.1 11 30.8 l -12.1 -4.7 l -1.4 20.2 c -1.5 20.6 5.4 44.6 18.3 64.2 c 3.6 5.5 8.3 11.6 14.3 17.6 l -6.3 -1 l 7.6 23.2 c 10 30.5 30.9 54.1 58 67.2 c -27 11.5 -48.9 18.8 -84.8 30.6 l -32.8 10.8 l 30.3 16.6 c 11.6 6.3 52.4 27.4 92.8 33.8 c 89.8 14.1 190.8 2.6 258.9 -58.7 c 57.3 -51.6 76.1 -125 72.2 -201.4 c -0.6 -11.6 2.6 -22.6 8.9 -31.1 c 12.7 -17 48.8 -66.4 48.8 -66.5 z m -72.8 48.6 c -10.5 14.1 -15.8 32 -14.9 50.6 c 3.9 77.1 -17 136.8 -62.3 177.6 c -52.9 47.7 -138.3 66.4 -234.2 51.3 c -17.4 -2.7 -35.3 -8.8 -50.2 -14.9 c 30.1 -10.4 53.3 -19.6 90.9 -37.4 l 52.4 -24.8 l -57.9 -3.7 c -27.7 -1.8 -50.8 -15.2 -65 -37 c 7.5 -0.4 14.8 -1.7 22 -3.7 l 55.2 -15.4 l -55.6 -13.6 c -27 -6.6 -42.4 -22.8 -50.6 -35.2 c -5.4 -8.2 -8.9 -16.5 -11 -24.2 c 5.6 1.5 12.1 2.6 22.6 3.6 l 51.5 5.1 l -40.8 -31.8 c -29.4 -22.9 -41.2 -57.4 -32.5 -90.5 c 91.8 95.2 199.5 88 210.3 90.5 c -2.4 -23.2 -2.4 -23.2 -3.1 -25.4 c -13.9 -49.1 16.5 -74 30.3 -82.5 c 28.7 -17.6 74.2 -20.3 105.7 8.8 c 6.8 6.3 16 8.7 24.6 6.6 c 7.7 -1.9 14.1 -4 20.3 -6.2 l -12.9 36.9 l 16.5 0 c -3.1 4.2 -6.9 9.2 -11.4 15.2 z m 0 0" fill="var(--fill)" /></svg>
