<?xml version="1.0" standalone="no"?>
<!DOCTYPE svg PUBLIC "-//W3C//DTD SVG 20010904//EN"
 "http://www.w3.org/TR/2001/REC-SVG-20010904/DTD/svg10.dtd">
<svg version="1.0" xmlns="http://www.w3.org/2000/svg"
 width="613.000000pt" height="613.000000pt" viewBox="0 0 613.000000 613.000000"
 preserveAspectRatio="xMidYMid meet">
<metadata>
Created by potrace 1.11, written by Peter Selinger 2001-2013
</metadata>
<g transform="translate(0.000000,613.000000) scale(0.100000,-0.100000)"
fill="#000000" stroke="none">
<path d="M0 3070 l0 -3060 1588 2 1587 3 2 1463 c1 805 4 1467 8 1470 4 4 618
7 1366 8 l1359 0 0 -1473 0 -1473 110 0 110 0 -2 3057 -3 3057 -105 0 -105 0
-3 -1472 c-2 -1393 -3 -1472 -20 -1473 -9 0 -289 -1 -620 -1 -418 -1 -606 2
-610 9 -4 6 -7 670 -6 1475 l1 1463 -106 0 c-58 0 -108 -3 -111 -7 -3 -3 -5
-666 -4 -1472 l0 -1466 -40 -1 c-181 -4 -1207 -1 -1212 4 -3 3 -6 667 -6 1476
l0 1471 -1589 0 -1589 0 0 -3060z m2957 2210 l0 -629 -1366 2 -1366 2 -3 627
-2 628 1368 0 1369 -1 0 -629z m-2485 -855 c3 3 383 6 468 4 8 -1 188 -1 400
-1 212 1 392 1 400 0 8 0 116 0 240 1 124 0 232 0 240 0 8 -1 119 -1 245 0
127 0 289 0 360 -2 l130 -2 2 -610 c0 -335 -1 -617 -3 -625 -3 -13 -163 -15
-1366 -14 l-1363 1 -3 626 -2 626 102 3 c57 2 113 0 124 -4 12 -4 24 -5 26 -3z
m2485 -2095 l0 -626 -1366 1 -1366 0 -3 626 -2 625 1368 0 1369 0 0 -626z
m-16 -849 c14 -1 16 -61 16 -626 l-1 -625 -1368 0 -1368 0 0 624 c0 407 3 625
10 628 8 2 2665 2 2711 -1z"/>
</g>
</svg>
